<?xml version="1.0" encoding="iso-8859-1"?>
<!-- Generator: Adobe Illustrator 19.0.0, SVG Export Plug-In . SVG Version: 6.00 Build 0)  -->
<svg version="1.1" id="Layer_1" xmlns="http://www.w3.org/2000/svg" xmlns:xlink="http://www.w3.org/1999/xlink" x="0px" y="0px"
	 viewBox="0 0 512 512" style="enable-background:new 0 0 512 512;" xml:space="preserve">
<path style="fill:#9BF57D;" d="M256,0c0,0,141.241,132.414,141.241,273.655c0,78.005-63.236,141.241-141.241,141.241
	S114.759,351.66,114.759,273.655C114.759,132.414,256,0,256,0z"/>
<path style="fill:#8CE16E;" d="M114.759,273.655c0,78.005,63.236,141.241,141.241,141.241V0C256,0,114.759,132.414,114.759,273.655z
	"/>
<g>
	<path style="fill:#82D16E;" d="M249.759,324.034c1.725,1.725,3.982,2.586,6.241,2.586c2.259,0,4.518-0.862,6.241-2.586
		l70.621-70.621c3.448-3.448,3.448-9.035,0-12.483c-3.448-3.448-9.035-3.448-12.483,0L256,305.311l-64.38-64.38
		c-3.448-3.448-9.035-3.448-12.483,0c-3.448,3.448-3.448,9.035,0,12.483L249.759,324.034z"/>
	<path style="fill:#82D16E;" d="M249.759,262.241c1.725,1.725,3.982,2.586,6.241,2.586c2.259,0,4.518-0.862,6.241-2.586
		l52.966-52.966c3.448-3.448,3.448-9.035,0-12.483s-9.035-3.448-12.483,0L256,243.518l-46.724-46.724
		c-3.448-3.448-9.035-3.448-12.483,0c-3.448,3.448-3.448,9.035,0,12.483L249.759,262.241z"/>
	<path style="fill:#82D16E;" d="M249.759,200.448c1.725,1.725,3.982,2.586,6.241,2.586c2.259,0,4.518-0.862,6.241-2.586l35.31-35.31
		c3.448-3.448,3.448-9.035,0-12.483s-9.035-3.448-12.483,0L256,181.725l-29.069-29.069c-3.448-3.448-9.035-3.448-12.483,0
		s-3.448,9.035,0,12.483L249.759,200.448z"/>
	<path style="fill:#82D16E;" d="M350.517,285.069c-3.448-3.448-9.035-3.448-12.483,0L256,367.104l-82.035-82.035
		c-3.448-3.448-9.035-3.448-12.483,0s-3.448,9.035,0,12.483l88.276,88.276c1.725,1.725,3.982,2.586,6.241,2.586
		c2.259,0,4.518-0.862,6.241-2.586l88.276-88.276C353.965,294.103,353.965,288.518,350.517,285.069z"/>
</g>
<path style="fill:#7DC86E;" d="M256,512c-4.879,0-8.828-3.953-8.828-8.828V114.759c0-4.875,3.948-8.828,8.828-8.828
	c4.879,0,8.828,3.953,8.828,8.828v388.414C264.828,508.047,260.879,512,256,512z"/>
<g>
</g>
<g>
</g>
<g>
</g>
<g>
</g>
<g>
</g>
<g>
</g>
<g>
</g>
<g>
</g>
<g>
</g>
<g>
</g>
<g>
</g>
<g>
</g>
<g>
</g>
<g>
</g>
<g>
</g>
</svg>
